<svg width="44" height="42" viewBox="0 0 44 42" fill="none" xmlns="http://www.w3.org/2000/svg">
<path d="M43.1961 18.8073C43.7461 19.552 43.9577 20.2967 44 20.9586V21.0414C43.9577 21.7033 43.7038 22.448 43.1961 23.1927C41.7575 25.22 31.8564 40.8587 31.8564 40.8587C31.8564 40.8587 31.0102 42.4309 29.0638 40.6519C28.6836 40.2997 28.5968 40.2251 28.5169 40.1437C28.4278 40.0529 28.3474 39.9537 27.8791 39.4521C26.9482 38.4592 26.2289 36.4319 28.6407 33.1221C31.264 29.5641 33.972 25.5096 35.6645 22.779C35.9607 22.3239 36.0876 21.7033 36.0876 21.1241V20.8759C36.0876 20.2967 35.9607 19.6761 35.6645 19.221C33.972 16.5318 31.264 12.4359 28.6407 8.87789C26.1866 5.5681 26.9482 3.54085 27.8791 2.54791C28.3474 2.04633 28.4278 1.94708 28.5169 1.85631C28.5968 1.77488 28.6836 1.70027 29.0638 1.34811C31.0102 -0.430901 31.8564 1.14125 31.8564 1.14125C31.8564 1.14125 41.7575 16.78 43.1961 18.8073Z" fill="#56B8FF"/>
<path d="M6.76994 19.8003C6.76994 20.214 6.89687 20.6277 7.10843 20.9587C8.29317 22.8619 10.2395 25.7579 12.059 28.2816C13.7938 30.5985 12.9898 31.4259 12.2705 32.0465C11.7628 32.5119 11.3741 32.8377 10.9437 33.1984C10.8002 33.3187 10.6521 33.4428 10.4934 33.5773C9.05479 34.7771 8.29318 33.3704 8.29318 33.3704C8.29318 33.3704 1.56554 22.7377 0.550052 21.2897C0.169243 20.7519 0.0423121 20.214 0 19.7589C0.0423121 19.2624 0.169243 18.766 0.550052 18.2281C1.56554 16.7801 8.08162 6.51975 8.08162 6.51975C8.08162 6.51975 8.92785 4.90623 10.4934 5.94054C11.0858 6.35427 11.6358 6.80936 12.2705 7.47132C12.302 7.50618 12.334 7.54104 12.3661 7.5761C12.9829 8.24844 13.6676 8.99487 12.059 11.2362C10.2395 13.7186 8.29317 16.6146 7.10843 18.5177C6.89687 18.8487 6.76994 19.3866 6.76994 19.8003Z" fill="#56B8FF"/>
</svg>
